<svg width="112" height="30" viewBox="0 0 112 30" fill="none" xmlns="http://www.w3.org/2000/svg">
<path d="M3.85295 22.2C2.77295 22.2 1.87295 22.0467 1.15295 21.74L1.55295 19.9C2.19295 20.2067 2.96628 20.36 3.87295 20.36C4.76628 20.36 5.42628 20.18 5.85295 19.82C6.29295 19.4467 6.59962 18.8533 6.77295 18.04L8.65295 9.12H10.8329L8.87295 18.4C8.61962 19.6267 8.09295 20.5667 7.29295 21.22C6.49295 21.8733 5.34628 22.2 3.85295 22.2ZM11.7458 22L14.4658 9.12H23.4458L23.0858 10.82H16.2858L15.4658 14.72H21.5258L21.1658 16.4H15.1058L14.2658 20.32H21.0658L20.7258 22H11.7458ZM25.9014 22.2C24.8214 22.2 23.9214 22.0467 23.2014 21.74L23.6014 19.9C24.2414 20.2067 25.0147 20.36 25.9214 20.36C26.8147 20.36 27.4747 20.18 27.9014 19.82C28.3414 19.4467 28.6481 18.8533 28.8214 18.04L30.7014 9.12H32.8814L30.9214 18.4C30.6681 19.6267 30.1414 20.5667 29.3414 21.22C28.5414 21.8733 27.3947 22.2 25.9014 22.2ZM39.2342 22.2C38.1009 22.2 37.1542 21.9933 36.3942 21.58C35.6475 21.1667 35.1209 20.5867 34.8142 19.84C34.5209 19.08 34.4809 18.2067 34.6942 17.22L36.4142 9.12H38.5942L36.8942 17.14C36.6542 18.26 36.7209 19.08 37.0942 19.6C37.4675 20.1067 38.3142 20.36 39.6342 20.36C40.7809 20.36 41.6875 20.1067 42.3542 19.6C43.0209 19.0933 43.4742 18.2733 43.7142 17.14L45.4142 9.12H47.5742L45.8542 17.22C45.5209 18.8333 44.8142 20.0667 43.7342 20.92C42.6675 21.7733 41.1675 22.2 39.2342 22.2ZM54.2801 22L57.0001 9.12H62.7201C64.1468 9.12 65.1468 9.49333 65.7201 10.24C66.3068 10.9733 66.4668 11.9733 66.2001 13.24C66.0001 14.1467 65.6135 14.9267 65.0401 15.58C64.4801 16.22 63.7268 16.66 62.7801 16.9C62.9801 17.0733 63.1201 17.26 63.2001 17.46C63.2935 17.66 63.3735 17.9267 63.4401 18.26L64.2801 22H62.0401L61.2201 18.4C61.1401 18.0533 61.0135 17.8067 60.8401 17.66C60.6668 17.5133 60.3335 17.44 59.8401 17.44H57.4201L56.4601 22H54.2801ZM57.8001 15.68H60.9601C61.8268 15.68 62.5068 15.4867 63.0001 15.1C63.4935 14.7133 63.8335 14.0933 64.0201 13.24C64.2068 12.4 64.1601 11.7867 63.8801 11.4C63.6135 11.0133 63.0468 10.82 62.1801 10.82H58.8201L57.8001 15.68ZM67.7067 22L70.4267 9.12H79.4067L79.0467 10.82H72.2467L71.4267 14.72H77.4867L77.1267 16.4H71.0667L70.2267 20.32H77.0267L76.6867 22H67.7067ZM79.9223 22L82.6423 9.12H84.5623L89.2823 18.6L91.2823 9.12H93.4423L90.7223 22H88.8023L84.1023 12.54L82.1023 22H79.9223ZM97.8217 22L100.182 10.82H96.0617L96.4217 9.12H106.822L106.462 10.82H102.362L100.002 22H97.8217Z" fill="#FF5000"/>
<path d="M1.15295 21.74L0.175773 21.5276L5.34058e-05 22.3359L0.761087 22.66L1.15295 21.74ZM1.55295 19.9L1.98507 18.9982L0.844454 18.4516L0.575773 19.6876L1.55295 19.9ZM5.85295 19.82L6.49782 20.5843L6.49993 20.5825L5.85295 19.82ZM6.77295 18.04L7.75099 18.2484L7.75145 18.2462L6.77295 18.04ZM8.65295 9.12V8.12H7.84174L7.67445 8.91377L8.65295 9.12ZM10.8329 9.12L11.8114 9.32665L12.0662 8.12H10.8329V9.12ZM8.87295 18.4L7.89452 18.1933L7.89362 18.1977L8.87295 18.4ZM7.29295 21.22L7.92548 21.9945V21.9945L7.29295 21.22ZM3.85295 22.2V21.2C2.85976 21.2 2.10338 21.0579 1.54481 20.82L1.15295 21.74L0.761087 22.66C1.64251 23.0354 2.68614 23.2 3.85295 23.2V22.2ZM1.15295 21.74L2.13013 21.9524L2.53013 20.1124L1.55295 19.9L0.575773 19.6876L0.175773 21.5276L1.15295 21.74ZM1.55295 19.9L1.12083 20.8018C1.92777 21.1885 2.85687 21.36 3.87295 21.36V20.36V19.36C3.0757 19.36 2.45813 19.2249 1.98507 18.9982L1.55295 19.9ZM3.87295 20.36V21.36C4.86922 21.36 5.81004 21.1646 6.49782 20.5843L5.85295 19.82L5.20808 19.0557C5.04253 19.1954 4.66335 19.36 3.87295 19.36V20.36ZM5.85295 19.82L6.49993 20.5825C7.16859 20.0152 7.55126 19.1856 7.75099 18.2484L6.77295 18.04L5.79491 17.8316C5.64797 18.5211 5.41731 18.8782 5.20597 19.0575L5.85295 19.82ZM6.77295 18.04L7.75145 18.2462L9.63145 9.32623L8.65295 9.12L7.67445 8.91377L5.79445 17.8338L6.77295 18.04ZM8.65295 9.12V10.12H10.8329V9.12V8.12H8.65295V9.12ZM10.8329 9.12L9.85453 8.91335L7.89453 18.1934L8.87295 18.4L9.85137 18.6066L11.8114 9.32665L10.8329 9.12ZM8.87295 18.4L7.89362 18.1977C7.67651 19.249 7.24695 19.9665 6.66042 20.4455L7.29295 21.22L7.92548 21.9945C8.93895 21.1669 9.56273 20.0043 9.85228 18.6023L8.87295 18.4ZM7.29295 21.22L6.66042 20.4455C6.10358 20.9002 5.21588 21.2 3.85295 21.2V22.2V23.2C5.47669 23.2 6.88232 22.8464 7.92548 21.9945L7.29295 21.22ZM11.7458 22L10.7673 21.7934L10.5125 23H11.7458V22ZM14.4658 9.12V8.12H13.6549L13.4873 8.91338L14.4658 9.12ZM23.4458 9.12L24.4241 9.32717L24.6797 8.12H23.4458V9.12ZM23.0858 10.82V11.82H23.8962L24.0641 11.0272L23.0858 10.82ZM16.2858 10.82V9.82H15.4742L15.3072 10.6142L16.2858 10.82ZM15.4658 14.72L14.4872 14.5142L14.2336 15.72H15.4658V14.72ZM21.5258 14.72L22.5036 14.9295L22.7627 13.72H21.5258V14.72ZM21.1658 16.4V17.4H21.9742L22.1436 16.6095L21.1658 16.4ZM15.1058 16.4V15.4H14.2973L14.128 16.1905L15.1058 16.4ZM14.2658 20.32L13.288 20.1105L13.0288 21.32H14.2658V20.32ZM21.0658 20.32L22.0459 20.5184L22.2884 19.32H21.0658V20.32ZM20.7258 22V23H21.5437L21.7059 22.1984L20.7258 22ZM11.7458 22L12.7242 22.2066L15.4442 9.32662L14.4658 9.12L13.4873 8.91338L10.7673 21.7934L11.7458 22ZM14.4658 9.12V10.12H23.4458V9.12V8.12H14.4658V9.12ZM23.4458 9.12L22.4675 8.91283L22.1075 10.6128L23.0858 10.82L24.0641 11.0272L24.4241 9.32717L23.4458 9.12ZM23.0858 10.82V9.82H16.2858V10.82V11.82H23.0858V10.82ZM16.2858 10.82L15.3072 10.6142L14.4872 14.5142L15.4658 14.72L16.4444 14.9258L17.2644 11.0258L16.2858 10.82ZM15.4658 14.72V15.72H21.5258V14.72V13.72H15.4658V14.72ZM21.5258 14.72L20.548 14.5105L20.188 16.1905L21.1658 16.4L22.1436 16.6095L22.5036 14.9295L21.5258 14.72ZM21.1658 16.4V15.4H15.1058V16.4V17.4H21.1658V16.4ZM15.1058 16.4L14.128 16.1905L13.288 20.1105L14.2658 20.32L15.2436 20.5295L16.0836 16.6095L15.1058 16.4ZM14.2658 20.32V21.32H21.0658V20.32V19.32H14.2658V20.32ZM21.0658 20.32L20.0856 20.1216L19.7456 21.8016L20.7258 22L21.7059 22.1984L22.0459 20.5184L21.0658 20.32ZM20.7258 22V21H11.7458V22V23H20.7258V22ZM23.2014 21.74L22.2242 21.5276L22.0485 22.3359L22.8095 22.66L23.2014 21.74ZM23.6014 19.9L24.0335 18.9982L22.8929 18.4516L22.6242 19.6876L23.6014 19.9ZM27.9014 19.82L28.5463 20.5843L28.5484 20.5825L27.9014 19.82ZM28.8214 18.04L29.7994 18.2484L29.7999 18.2462L28.8214 18.04ZM30.7014 9.12V8.12H29.8902L29.7229 8.91377L30.7014 9.12ZM32.8814 9.12L33.8598 9.32665L34.1147 8.12H32.8814V9.12ZM30.9214 18.4L29.943 18.1933L29.9421 18.1977L30.9214 18.4ZM29.3414 21.22L29.9739 21.9945V21.9945L29.3414 21.22ZM25.9014 22.2V21.2C24.9082 21.2 24.1518 21.0579 23.5932 20.82L23.2014 21.74L22.8095 22.66C23.691 23.0354 24.7346 23.2 25.9014 23.2V22.2ZM23.2014 21.74L24.1786 21.9524L24.5786 20.1124L23.6014 19.9L22.6242 19.6876L22.2242 21.5276L23.2014 21.74ZM23.6014 19.9L23.1693 20.8018C23.9762 21.1885 24.9053 21.36 25.9214 21.36V20.36V19.36C25.1241 19.36 24.5066 19.2249 24.0335 18.9982L23.6014 19.9ZM25.9214 20.36V21.36C26.9177 21.36 27.8585 21.1646 28.5463 20.5843L27.9014 19.82L27.2565 19.0557C27.091 19.1954 26.7118 19.36 25.9214 19.36V20.36ZM27.9014 19.82L28.5484 20.5825C29.217 20.0152 29.5997 19.1856 29.7994 18.2484L28.8214 18.04L27.8433 17.8316C27.6964 18.5211 27.4657 18.8782 27.2544 19.0575L27.9014 19.82ZM28.8214 18.04L29.7999 18.2462L31.6799 9.32623L30.7014 9.12L29.7229 8.91377L27.8429 17.8338L28.8214 18.04ZM30.7014 9.12V10.12H32.8814V9.12V8.12H30.7014V9.12ZM32.8814 9.12L31.903 8.91335L29.943 18.1934L30.9214 18.4L31.8998 18.6066L33.8598 9.32665L32.8814 9.12ZM30.9214 18.4L29.9421 18.1977C29.7249 19.249 29.2954 19.9665 28.7089 20.4455L29.3414 21.22L29.9739 21.9945C30.9874 21.1669 31.6112 20.0043 31.9007 18.6023L30.9214 18.4ZM29.3414 21.22L28.7089 20.4455C28.152 20.9002 27.2643 21.2 25.9014 21.2V22.2V23.2C27.5251 23.2 28.9308 22.8464 29.9739 21.9945L29.3414 21.22ZM36.3942 21.58L35.9099 22.4549L35.9164 22.4585L36.3942 21.58ZM34.8142 19.84L33.8813 20.2001L33.8851 20.21L33.8892 20.2199L34.8142 19.84ZM34.6942 17.22L35.6716 17.4313L35.6724 17.4277L34.6942 17.22ZM36.4142 9.12V8.12H35.6042L35.436 8.91228L36.4142 9.12ZM38.5942 9.12L39.5725 9.32736L39.8284 8.12H38.5942V9.12ZM36.8942 17.14L37.872 17.3495L37.8725 17.3474L36.8942 17.14ZM37.0942 19.6L36.2818 20.1833L36.2891 20.1932L37.0942 19.6ZM42.3542 19.6L42.9593 20.3962V20.3962L42.3542 19.6ZM43.7142 17.14L42.7359 16.9326L42.7359 16.9328L43.7142 17.14ZM45.4142 9.12V8.12H44.604L44.4359 8.91264L45.4142 9.12ZM47.5742 9.12L48.5524 9.32771L48.8088 8.12H47.5742V9.12ZM45.8542 17.22L44.876 17.0123L44.8749 17.0177L45.8542 17.22ZM43.7342 20.92L43.1142 20.1354L43.1095 20.1391L43.7342 20.92ZM39.2342 22.2V21.2C38.2177 21.2 37.4469 21.0142 36.872 20.7015L36.3942 21.58L35.9164 22.4585C36.8615 22.9725 37.984 23.2 39.2342 23.2V22.2ZM36.3942 21.58L36.8785 20.7051C36.3185 20.3951 35.9543 19.9839 35.7392 19.4601L34.8142 19.84L33.8892 20.2199C34.2874 21.1895 34.9766 21.9382 35.9099 22.4549L36.3942 21.58ZM34.8142 19.84L35.7471 19.4799C35.5392 18.9412 35.4896 18.273 35.6716 17.4313L34.6942 17.22L33.7168 17.0087C33.4721 18.1403 33.5025 19.2188 33.8813 20.2001L34.8142 19.84ZM34.6942 17.22L35.6724 17.4277L37.3924 9.32771L36.4142 9.12L35.436 8.91228L33.716 17.0123L34.6942 17.22ZM36.4142 9.12V10.12H38.5942V9.12V8.12H36.4142V9.12ZM38.5942 9.12L37.6159 8.91264L35.9159 16.9326L36.8942 17.14L37.8725 17.3474L39.5725 9.32736L38.5942 9.12ZM36.8942 17.14L35.9164 16.9305C35.6607 18.1239 35.6532 19.3076 36.2819 20.1832L37.0942 19.6L37.9065 19.0168C37.7885 18.8524 37.6477 18.3961 37.872 17.3495L36.8942 17.14ZM37.0942 19.6L36.2891 20.1932C36.6473 20.6793 37.1733 20.9637 37.7225 21.128C38.2726 21.2926 38.92 21.36 39.6342 21.36V20.36V19.36C39.0284 19.36 38.5925 19.3007 38.2959 19.212C37.9984 19.123 37.9144 19.0274 37.8993 19.0068L37.0942 19.6ZM39.6342 20.36V21.36C40.9199 21.36 42.0644 21.0762 42.9593 20.3962L42.3542 19.6L41.7491 18.8038C41.3106 19.1371 40.6419 19.36 39.6342 19.36V20.36ZM42.3542 19.6L42.9593 20.3962C43.8792 19.697 44.4218 18.6254 44.6925 17.3472L43.7142 17.14L42.7359 16.9328C42.5266 17.9212 42.1625 18.4897 41.7491 18.8038L42.3542 19.6ZM43.7142 17.14L44.6925 17.3474L46.3925 9.32736L45.4142 9.12L44.4359 8.91264L42.7359 16.9326L43.7142 17.14ZM45.4142 9.12V10.12H47.5742V9.12V8.12H45.4142V9.12ZM47.5742 9.12L46.596 8.91228L44.876 17.0123L45.8542 17.22L46.8324 17.4277L48.5524 9.32771L47.5742 9.12ZM45.8542 17.22L44.8749 17.0177C44.5794 18.448 43.975 19.4552 43.1142 20.1354L43.7342 20.92L44.3542 21.7046C45.6534 20.6781 46.4624 19.2186 46.8335 17.4223L45.8542 17.22ZM43.7342 20.92L43.1095 20.1391C42.2809 20.802 41.0328 21.2 39.2342 21.2V22.2V23.2C41.3022 23.2 43.0542 22.7446 44.3589 21.7009L43.7342 20.92ZM54.2801 22L53.3017 21.7934L53.0469 23H54.2801V22ZM57.0001 9.12V8.12H56.1893L56.0217 8.91338L57.0001 9.12ZM65.7201 10.24L64.927 10.849L64.9331 10.8569L64.9393 10.8647L65.7201 10.24ZM66.2001 13.24L67.1767 13.4554L67.1787 13.446L66.2001 13.24ZM65.0401 15.58L64.2885 14.9204L64.2876 14.9215L65.0401 15.58ZM62.7801 16.9L62.5344 15.9307L60.6779 16.4013L62.1252 17.6557L62.7801 16.9ZM63.2001 17.46L62.2717 17.8314L62.2821 17.8575L62.294 17.8829L63.2001 17.46ZM63.4401 18.26L62.4596 18.4561L62.4619 18.4677L62.4644 18.4791L63.4401 18.26ZM64.2801 22V23H65.5296L65.2558 21.7809L64.2801 22ZM62.0401 22L61.0651 22.2221L61.2423 23H62.0401V22ZM61.2201 18.4L62.1952 18.1779L62.1945 18.1751L61.2201 18.4ZM60.8401 17.66L60.1942 18.4234V18.4234L60.8401 17.66ZM57.4201 17.44V16.44H56.6087L56.4416 17.234L57.4201 17.44ZM56.4601 22V23H57.2715L57.4387 22.206L56.4601 22ZM57.8001 15.68L56.8215 15.4746L56.5685 16.68H57.8001V15.68ZM63.0001 15.1L62.3833 14.3129V14.3129L63.0001 15.1ZM64.0201 13.24L63.0439 13.0231L63.0432 13.0263L64.0201 13.24ZM63.8801 11.4L63.0569 11.9677L63.0635 11.9772L63.0702 11.9865L63.8801 11.4ZM58.8201 10.82V9.82H58.0082L57.8415 10.6146L58.8201 10.82ZM54.2801 22L55.2586 22.2066L57.9786 9.32662L57.0001 9.12L56.0217 8.91338L53.3017 21.7934L54.2801 22ZM57.0001 9.12V10.12H62.7201V9.12V8.12H57.0001V9.12ZM62.7201 9.12V10.12C64.0007 10.12 64.6246 10.4552 64.927 10.849L65.7201 10.24L66.5133 9.63097C65.669 8.53143 64.2929 8.12 62.7201 8.12V9.12ZM65.7201 10.24L64.9393 10.8647C65.2757 11.2852 65.4512 11.9432 65.2216 13.034L66.2001 13.24L67.1787 13.446C67.4824 12.0035 67.3379 10.6615 66.501 9.6153L65.7201 10.24ZM66.2001 13.24L65.2236 13.0246C65.0574 13.7782 64.7431 14.4024 64.2885 14.9204L65.0401 15.58L65.7918 16.2396C66.4839 15.4509 66.9429 14.5152 67.1767 13.4554L66.2001 13.24ZM65.0401 15.58L64.2876 14.9215C63.8802 15.3871 63.3146 15.7329 62.5344 15.9307L62.7801 16.9L63.0259 17.8693C64.139 17.5871 65.0801 17.0529 65.7927 16.2385L65.0401 15.58ZM62.7801 16.9L62.1252 17.6557C62.2318 17.7481 62.2629 17.8096 62.2717 17.8314L63.2001 17.46L64.1286 17.0886C63.9773 16.7104 63.7285 16.3986 63.4351 16.1443L62.7801 16.9ZM63.2001 17.46L62.294 17.8829C62.3406 17.9827 62.4011 18.1638 62.4596 18.4561L63.4401 18.26L64.4207 18.0639C64.3458 17.6895 64.2464 17.3373 64.1063 17.0371L63.2001 17.46ZM63.4401 18.26L62.4644 18.4791L63.3044 22.2191L64.2801 22L65.2558 21.7809L64.4158 18.0409L63.4401 18.26ZM64.2801 22V21H62.0401V22V23H64.2801V22ZM62.0401 22L63.0152 21.7779L62.1952 18.1779L61.2201 18.4L60.2451 18.6221L61.0651 22.2221L62.0401 22ZM61.2201 18.4L62.1945 18.1751C62.0917 17.7295 61.894 17.2418 61.4861 16.8966L60.8401 17.66L60.1942 18.4234C60.1606 18.395 60.1595 18.3805 60.1756 18.4118C60.1923 18.4443 60.2194 18.5106 60.2457 18.6249L61.2201 18.4ZM60.8401 17.66L61.4861 16.8966C61.2283 16.6785 60.9271 16.5738 60.675 16.5184C60.4142 16.461 60.1301 16.44 59.8401 16.44V17.44V18.44C60.0435 18.44 60.1727 18.4557 60.2453 18.4716C60.3265 18.4895 60.2786 18.4948 60.1942 18.4234L60.8401 17.66ZM59.8401 17.44V16.44H57.4201V17.44V18.44H59.8401V17.44ZM57.4201 17.44L56.4416 17.234L55.4816 21.794L56.4601 22L57.4387 22.206L58.3987 17.646L57.4201 17.44ZM56.4601 22V21H54.2801V22V23H56.4601V22ZM57.8001 15.68V16.68H60.9601V15.68V14.68H57.8001V15.68ZM60.9601 15.68V16.68C61.9661 16.68 62.8911 16.456 63.617 15.8871L63.0001 15.1L62.3833 14.3129C62.1225 14.5173 61.6875 14.68 60.9601 14.68V15.68ZM63.0001 15.1L63.617 15.8871C64.3538 15.3096 64.78 14.4457 64.997 13.4537L64.0201 13.24L63.0432 13.0263C62.8869 13.7409 62.6331 14.1171 62.3833 14.3129L63.0001 15.1ZM64.0201 13.24L64.9963 13.4569C65.1988 12.546 65.2318 11.5616 64.6901 10.8135L63.8801 11.4L63.0702 11.9865C63.0885 12.0118 63.2149 12.254 63.0439 13.0231L64.0201 13.24ZM63.8801 11.4L64.7034 10.8323C64.1377 10.0121 63.1092 9.82 62.1801 9.82V10.82V11.82C62.5483 11.82 62.7881 11.8623 62.9322 11.9114C63.0687 11.958 63.0753 11.9944 63.0569 11.9677L63.8801 11.4ZM62.1801 10.82V9.82H58.8201V10.82V11.82H62.1801V10.82ZM58.8201 10.82L57.8415 10.6146L56.8215 15.4746L57.8001 15.68L58.7788 15.8854L59.7988 11.0254L58.8201 10.82ZM67.7067 22L66.7283 21.7934L66.4735 23H67.7067V22ZM70.4267 9.12V8.12H69.6158L69.4483 8.91338L70.4267 9.12ZM79.4067 9.12L80.385 9.32717L80.6406 8.12H79.4067V9.12ZM79.0467 10.82V11.82H79.8571L80.025 11.0272L79.0467 10.82ZM72.2467 10.82V9.82H71.4351L71.2681 10.6142L72.2467 10.82ZM71.4267 14.72L70.4481 14.5142L70.1946 15.72H71.4267V14.72ZM77.4867 14.72L78.4645 14.9295L78.7237 13.72H77.4867V14.72ZM77.1267 16.4V17.4H77.9351L78.1045 16.6095L77.1267 16.4ZM71.0667 16.4V15.4H70.2583L70.0889 16.1905L71.0667 16.4ZM70.2267 20.32L69.2489 20.1105L68.9897 21.32H70.2267V20.32ZM77.0267 20.32L78.0068 20.5184L78.2494 19.32H77.0267V20.32ZM76.6867 22V23H77.5046L77.6668 22.1984L76.6867 22ZM67.7067 22L68.6851 22.2066L71.4051 9.32662L70.4267 9.12L69.4483 8.91338L66.7283 21.7934L67.7067 22ZM70.4267 9.12V10.12H79.4067V9.12V8.12H70.4267V9.12ZM79.4067 9.12L78.4284 8.91283L78.0684 10.6128L79.0467 10.82L80.025 11.0272L80.385 9.32717L79.4067 9.12ZM79.0467 10.82V9.82H72.2467V10.82V11.82H79.0467V10.82ZM72.2467 10.82L71.2681 10.6142L70.4481 14.5142L71.4267 14.72L72.4053 14.9258L73.2253 11.0258L72.2467 10.82ZM71.4267 14.72V15.72H77.4867V14.72V13.72H71.4267V14.72ZM77.4867 14.72L76.5089 14.5105L76.1489 16.1905L77.1267 16.4L78.1045 16.6095L78.4645 14.9295L77.4867 14.72ZM77.1267 16.4V15.4H71.0667V16.4V17.4H77.1267V16.4ZM71.0667 16.4L70.0889 16.1905L69.2489 20.1105L70.2267 20.32L71.2045 20.5295L72.0445 16.6095L71.0667 16.4ZM70.2267 20.32V21.32H77.0267V20.32V19.32H70.2267V20.32ZM77.0267 20.32L76.0466 20.1216L75.7066 21.8016L76.6867 22L77.6668 22.1984L78.0068 20.5184L77.0267 20.32ZM76.6867 22V21H67.7067V22V23H76.6867V22ZM79.9223 22L78.9439 21.7934L78.6891 23H79.9223V22ZM82.6423 9.12V8.12H81.8315L81.6639 8.91338L82.6423 9.12ZM84.5623 9.12L85.4575 8.6743L85.1815 8.12H84.5623V9.12ZM89.2823 18.6L88.3871 19.0457L89.6677 21.6177L90.2608 18.8064L89.2823 18.6ZM91.2823 9.12V8.12H90.4713L90.3039 8.91357L91.2823 9.12ZM93.4423 9.12L94.4207 9.32662L94.6756 8.12H93.4423V9.12ZM90.7223 22V23H91.5332L91.7007 22.2066L90.7223 22ZM88.8023 22L87.9068 22.4449L88.1825 23H88.8023V22ZM84.1023 12.54L84.9979 12.0951L83.7186 9.52025L83.124 12.3332L84.1023 12.54ZM82.1023 22V23H82.913L83.0807 22.2068L82.1023 22ZM79.9223 22L80.9007 22.2066L83.6207 9.32662L82.6423 9.12L81.6639 8.91338L78.9439 21.7934L79.9223 22ZM82.6423 9.12V10.12H84.5623V9.12V8.12H82.6423V9.12ZM84.5623 9.12L83.6671 9.5657L88.3871 19.0457L89.2823 18.6L90.1775 18.1543L85.4575 8.6743L84.5623 9.12ZM89.2823 18.6L90.2608 18.8064L92.2608 9.32643L91.2823 9.12L90.3039 8.91357L88.3039 18.3936L89.2823 18.6ZM91.2823 9.12V10.12H93.4423V9.12V8.12H91.2823V9.12ZM93.4423 9.12L92.4639 8.91338L89.7439 21.7934L90.7223 22L91.7007 22.2066L94.4207 9.32662L93.4423 9.12ZM90.7223 22V21H88.8023V22V23H90.7223V22ZM88.8023 22L89.6979 21.5551L84.9979 12.0951L84.1023 12.54L83.2068 12.9849L87.9068 22.4449L88.8023 22ZM84.1023 12.54L83.124 12.3332L81.124 21.7932L82.1023 22L83.0807 22.2068L85.0807 12.7468L84.1023 12.54ZM82.1023 22V21H79.9223V22V23H82.1023V22ZM97.8217 22L96.8433 21.7935L96.5886 23H97.8217V22ZM100.182 10.82L101.16 11.0265L101.415 9.82H100.182V10.82ZM96.0617 10.82L95.0834 10.6128L94.8278 11.82H96.0617V10.82ZM96.4217 9.12V8.12H95.6113L95.4434 8.91283L96.4217 9.12ZM106.822 9.12L107.8 9.32717L108.056 8.12H106.822V9.12ZM106.462 10.82V11.82H107.272L107.44 11.0272L106.462 10.82ZM102.362 10.82V9.82H101.551L101.383 10.6135L102.362 10.82ZM100.002 22V23H100.813L100.98 22.2065L100.002 22ZM97.8217 22L98.8001 22.2065L101.16 11.0265L100.182 10.82L99.2033 10.6135L96.8433 21.7935L97.8217 22ZM100.182 10.82V9.82H96.0617V10.82V11.82H100.182V10.82ZM96.0617 10.82L97.04 11.0272L97.4 9.32717L96.4217 9.12L95.4434 8.91283L95.0834 10.6128L96.0617 10.82ZM96.4217 9.12V10.12H106.822V9.12V8.12H96.4217V9.12ZM106.822 9.12L105.843 8.91283L105.483 10.6128L106.462 10.82L107.44 11.0272L107.8 9.32717L106.822 9.12ZM106.462 10.82V9.82H102.362V10.82V11.82H106.462V10.82ZM102.362 10.82L101.383 10.6135L99.0233 21.7935L100.002 22L100.98 22.2065L103.34 11.0265L102.362 10.82ZM100.002 22V21H97.8217V22V23H100.002V22Z" fill="#FF5000"/>
<path d="M52.5729 19.1429H52.3729L51.0132 17.3217C50.9382 17.2213 50.8432 17.1403 50.735 17.0846C50.6269 17.0289 50.5084 17 50.3884 17H47.7146C47.3874 17 47.0933 17.2133 46.9718 17.5388L46.3729 19.1731C46.0284 19.2687 45.7729 19.601 45.7729 20V21.5C45.7729 21.6184 45.8624 21.7143 45.9729 21.7143H46.5729C46.5729 22.4244 47.1102 23 47.7729 23C48.4357 23 48.9729 22.4244 48.9729 21.7143H50.5729C50.5729 22.4244 51.1102 23 51.7729 23C52.4357 23 52.9729 22.4244 52.9729 21.7143H53.5729C53.6834 21.7143 53.7729 21.6184 53.7729 21.5V20.4286C53.7729 19.7185 53.2357 19.1429 52.5729 19.1429ZM47.7729 22.3571C47.4421 22.3571 47.1729 22.0688 47.1729 21.7143C47.1729 21.3598 47.4421 21.0714 47.7729 21.0714C48.1038 21.0714 48.3729 21.3598 48.3729 21.7143C48.3729 22.0688 48.1038 22.3571 47.7729 22.3571ZM48.6729 19.1429H47.2346L47.7146 17.8571H48.6729V19.1429ZM49.2729 19.1429V17.8571H50.3884L51.3484 19.1429H49.2729ZM51.7729 22.3571C51.4421 22.3571 51.1729 22.0688 51.1729 21.7143C51.1729 21.3598 51.4421 21.0714 51.7729 21.0714C52.1038 21.0714 52.3729 21.3598 52.3729 21.7143C52.3729 22.0688 52.1038 22.3571 51.7729 22.3571Z" fill="#08A5E2"/>
</svg>
